<svg width="174" height="40" viewBox="0 0 174 40" fill="none" xmlns="http://www.w3.org/2000/svg">
<path d="M53.268 16.7909C52.1645 16.0381 49.2658 15.7166 47.1586 16.2924C47.0455 14.1648 45.9622 12.3716 43.9822 10.8069L43.2495 10.3084L42.761 11.0565C41.8008 12.5337 41.3959 14.5026 41.5391 16.2924C41.6522 17.3952 42.0303 18.6344 42.761 19.5337C40.0182 21.1465 37.4895 20.7803 26.2919 20.7803H9.00383C8.95364 23.3434 9.35981 28.2728 12.4526 32.2859C12.7946 32.7294 13.1686 33.1581 13.5754 33.5711C16.0901 36.1233 19.8895 37.9952 25.5706 38C34.2381 38.0081 41.6636 33.2591 46.181 21.778C47.6672 21.8024 51.5911 22.0479 53.5115 18.2871C53.5584 18.224 54 17.2901 54 17.2901L53.268 16.7909ZM20.2863 14.4476H15.425V19.375H20.2863V14.4476ZM26.5663 14.4476H21.7049V19.375H26.5663V14.4476ZM32.8469 14.4476H27.9855V19.375H32.8469V14.4476ZM39.1275 14.4476H34.2662V19.375H39.1275V14.4476ZM14.0057 14.4476H9.14435V19.375H14.0057V14.4476ZM20.2863 8.22415H15.425V13.1515H20.2863V8.22415ZM26.5663 8.22415H21.7049V13.1515H26.5663V8.22415ZM32.8469 8.22415H27.9855V13.1515H32.8469V8.22415ZM32.8469 2H27.9855V6.92737H32.8469V2Z" fill="#1D63ED"/>
<path d="M164.998 30.4384C164.998 31.7229 164 32.7315 162.702 32.7315C161.405 32.7315 160.393 31.7229 160.393 30.4384C160.393 29.1538 161.417 28.173 162.702 28.173C163.987 28.173 164.998 29.1816 164.998 30.4384ZM160.967 30.4384C160.967 31.4469 161.705 32.2479 162.716 32.2479C163.727 32.2479 164.425 31.4469 164.425 30.4526C164.425 29.4583 163.7 28.6288 162.704 28.6288C161.707 28.6288 160.968 29.4441 160.968 30.4384H160.967ZM162.348 31.6266H161.829V29.3613C162.033 29.3199 162.32 29.2921 162.689 29.2921C163.113 29.2921 163.303 29.3613 163.468 29.4583C163.591 29.5546 163.687 29.7343 163.687 29.9554C163.687 30.2044 163.495 30.3977 163.223 30.4804V30.5082C163.44 30.5903 163.564 30.7564 163.632 31.0603C163.7 31.4055 163.741 31.5439 163.797 31.6266H163.236C163.168 31.5439 163.126 31.337 163.059 31.0739C163.018 30.8256 162.881 30.7151 162.594 30.7151H162.348V31.6273V31.6266ZM162.361 30.342H162.606C162.893 30.342 163.126 30.2457 163.126 30.0111C163.126 29.8035 162.976 29.6645 162.647 29.6645C162.511 29.6645 162.415 29.6787 162.361 29.6937V30.342Z" fill="white"/>
<path d="M76.9482 7.51243C76.6268 7.19501 76.241 7.03359 75.7787 7.03359C75.3164 7.03359 74.9192 7.19501 74.6099 7.51243C74.2999 7.82984 74.1482 8.23678 74.1482 8.72172V16.8198C72.5581 15.4912 70.723 14.8211 68.6356 14.8211C66.2094 14.8211 64.1348 15.7069 62.4157 17.4845C60.6967 19.2561 59.8433 21.3993 59.8433 23.9128C59.8433 26.4263 60.7028 28.5635 62.4157 30.3411C64.1348 32.1127 66.204 33.0045 68.6356 33.0045C71.0672 33.0045 73.1136 32.1188 74.8554 30.3411C76.5745 28.5872 77.4279 26.4447 77.4279 23.9128V8.72172C77.4279 8.23678 77.2702 7.82984 76.9482 7.51243ZM73.7155 26.1035V26.1157C73.429 26.8041 73.0371 27.4084 72.5406 27.9232C72.0441 28.4441 71.459 28.851 70.7927 29.1562C70.1204 29.4614 69.4072 29.6113 68.6416 29.6113C67.8761 29.6113 67.1454 29.4614 66.4731 29.1562C65.8008 28.851 65.2217 28.4441 64.7312 27.9293C64.2401 27.4145 63.8489 26.8102 63.5624 26.1218C63.2759 25.4273 63.1297 24.6914 63.1297 23.9128C63.1297 23.1342 63.2759 22.3983 63.5624 21.7038C63.8489 21.0093 64.2408 20.4111 64.7312 19.8963C65.2224 19.3815 65.8068 18.9746 66.4731 18.6694C67.1454 18.3642 67.8647 18.2143 68.6416 18.2143C69.4186 18.2143 70.1204 18.3642 70.7927 18.6694C71.4651 18.9746 72.0441 19.3815 72.5406 19.9024C73.0371 20.4233 73.429 21.0276 73.7155 21.7099C74.002 22.3983 74.1482 23.1288 74.1482 23.9067C74.1482 24.6846 74.002 25.4212 73.7155 26.1035Z" fill="white"/>
<path d="M149.588 20.4237C149.161 19.3459 148.511 18.3706 147.658 17.4964L147.646 17.4903C145.91 15.7187 143.834 14.8269 141.427 14.8269C139.019 14.8269 136.925 15.7126 135.206 17.4903C133.487 19.2618 132.634 21.4051 132.634 23.9186C132.634 26.4321 133.494 28.5692 135.206 30.3469C136.925 32.1184 138.995 33.0103 141.427 33.0103C143.635 33.0103 145.547 32.2744 147.173 30.802C147.487 30.4669 147.646 30.06 147.646 29.5866C147.646 29.1132 147.495 28.6947 147.184 28.3773C146.875 28.0599 146.483 27.8985 146.015 27.8985C145.607 27.9107 145.244 28.0484 144.934 28.3237C144.443 28.7544 143.911 29.084 143.333 29.2997C142.754 29.5154 142.122 29.6232 141.433 29.6232C140.825 29.6232 140.24 29.5276 139.685 29.3302C139.129 29.1329 138.61 28.8629 138.148 28.5102C137.679 28.1569 137.277 27.7384 136.932 27.2413C136.587 26.7502 136.324 26.2056 136.149 25.6074H148.583C149.044 25.6074 149.43 25.446 149.752 25.1286C150.074 24.8111 150.232 24.4042 150.232 23.9193C150.232 22.6625 150.014 21.4953 149.589 20.4237H149.588ZM136.136 22.2311C136.306 21.6384 136.563 21.0937 136.908 20.5973C137.253 20.1062 137.662 19.6817 138.129 19.3283C138.603 18.9749 139.117 18.7057 139.684 18.5083C140.25 18.3109 140.829 18.2153 141.427 18.2153C142.024 18.2153 142.601 18.3109 143.162 18.5083C143.723 18.7057 144.239 18.9749 144.7 19.3283C145.168 19.6817 145.577 20.1001 145.921 20.5973C146.272 21.0883 146.536 21.6329 146.717 22.2311H136.135H136.136Z" fill="white"/>
<path d="M164.868 15.9639C164.576 15.6709 164.207 15.443 163.763 15.2755C163.319 15.1079 162.834 14.994 162.302 14.9282C161.776 14.8624 161.278 14.8326 160.817 14.8326C159.77 14.8326 158.788 15.0062 157.865 15.3534C156.941 15.7007 156.088 16.1972 155.304 16.8435V16.5207C155.304 16.0541 155.146 15.6587 154.824 15.3297C154.504 15.0008 154.123 14.8332 153.674 14.8332C153.224 14.8332 152.826 15.0008 152.505 15.3297C152.183 15.6587 152.025 16.0602 152.025 16.5207V31.3232C152.025 31.7898 152.183 32.1852 152.505 32.5141C152.826 32.8431 153.211 33.0106 153.674 33.0106C154.136 33.0106 154.509 32.8431 154.824 32.5141C155.146 32.1852 155.304 31.7837 155.304 31.3232V23.9189C155.304 23.1287 155.45 22.3867 155.737 21.6922C156.023 20.9977 156.415 20.3995 156.912 19.8847C157.41 19.37 157.994 18.963 158.66 18.6693C159.332 18.3702 160.046 18.2203 160.812 18.2203C161.578 18.2203 162.302 18.358 162.963 18.6273C163.226 18.7473 163.454 18.807 163.653 18.807C163.881 18.807 164.097 18.765 164.296 18.6754C164.494 18.5859 164.67 18.4659 164.816 18.3106C164.963 18.1552 165.079 17.9755 165.167 17.7659C165.255 17.5625 165.302 17.3407 165.302 17.1013C165.302 16.6346 165.155 16.2575 164.863 15.9639H164.869H164.868Z" fill="white"/>
<path d="M96.2271 20.4295C95.8003 19.3579 95.1629 18.3765 94.3041 17.4907C92.5683 15.7192 90.493 14.8273 88.0842 14.8273C85.6755 14.8273 83.5834 15.7131 81.8644 17.4907C80.1454 19.2623 79.2926 21.4055 79.2926 23.919C79.2926 26.4326 80.1521 28.5697 81.8644 30.3473C83.5834 32.1189 85.6527 33.0108 88.0842 33.0108C90.5158 33.0108 92.5623 32.125 94.3041 30.3473C96.0231 28.5934 96.8766 26.4509 96.8766 23.919C96.8645 22.6623 96.6484 21.5011 96.2277 20.4295H96.2271ZM93.1641 26.1036V26.1158C92.8776 26.8042 92.4858 27.4085 91.9893 27.9233C91.4927 28.4442 90.9077 28.8511 90.2414 29.1564C89.5751 29.4616 88.8558 29.6114 88.0903 29.6114C87.3247 29.6114 86.594 29.4616 85.9217 29.1564C85.2494 28.8511 84.6704 28.4442 84.1799 27.9294C83.6887 27.4146 83.2976 26.8103 83.0111 26.1219C82.7246 25.4274 82.5783 24.6915 82.5783 23.9129C82.5783 23.1343 82.7246 22.3984 83.0111 21.7039C83.2976 21.0094 83.6894 20.4112 84.1799 19.8964C84.671 19.3816 85.2554 18.9747 85.9217 18.6695C86.594 18.3643 87.3133 18.2144 88.0903 18.2144C88.8673 18.2144 89.5691 18.3643 90.2414 18.6695C90.9137 18.9747 91.4927 19.3816 91.9893 19.9025C92.4858 20.4234 92.8776 21.0277 93.1641 21.71C93.4506 22.3984 93.5969 23.1289 93.5969 23.9068C93.5969 24.6848 93.4506 25.4213 93.1641 26.1036Z" fill="white"/>
<path d="M131.394 16.5148C131.394 16.2876 131.347 16.0719 131.26 15.8684C131.172 15.665 131.055 15.4798 130.909 15.3238C130.763 15.1685 130.588 15.0423 130.389 14.9589C130.191 14.8755 129.974 14.8273 129.746 14.8273C129.419 14.8273 129.126 14.9114 128.869 15.0851L119.481 21.4001V8.73408C119.481 8.25525 119.324 7.85441 119.002 7.52479C118.681 7.19584 118.301 7.02832 117.851 7.02832C117.401 7.02832 117.003 7.19584 116.681 7.52479C116.36 7.85373 116.202 8.25525 116.202 8.73408V31.2996C116.202 31.7662 116.36 32.1678 116.681 32.5028C117.003 32.8378 117.389 33.0054 117.851 33.0054C118.313 33.0054 118.687 32.8378 119.002 32.5028C119.324 32.1678 119.481 31.7662 119.481 31.2996V25.4397L121.399 24.1409L128.653 32.5625C128.946 32.8555 129.314 32.9993 129.752 32.9993C129.981 32.9993 130.197 32.9572 130.395 32.8677C130.594 32.7836 130.77 32.6581 130.915 32.5028C131.061 32.3475 131.178 32.1678 131.266 31.9582C131.354 31.7547 131.4 31.5329 131.4 31.3118C131.4 30.8689 131.249 30.4735 130.944 30.1269L124.192 22.2682L130.768 17.8509C131.189 17.5579 131.394 17.1089 131.394 16.5039V16.5161L131.394 16.5148Z" fill="white"/>
<path d="M103.599 19.8848C104.101 19.37 104.686 18.9631 105.359 18.6694C106.031 18.3703 106.744 18.2204 107.51 18.2204C108.2 18.2204 108.837 18.3404 109.427 18.5792C110.012 18.8186 110.573 19.172 111.105 19.6325C111.42 19.8895 111.777 20.0211 112.174 20.0211C112.648 20.0211 113.034 19.8597 113.344 19.5362C113.654 19.2126 113.806 18.8057 113.806 18.3208C113.806 17.8358 113.618 17.3868 113.239 17.0403C111.625 15.5678 109.714 14.8313 107.51 14.8313C105.084 14.8313 103.009 15.717 101.29 17.4947C99.571 19.2662 98.7182 21.4094 98.7182 23.923C98.7182 26.4365 99.5777 28.5736 101.29 30.3513C103.009 32.1228 105.078 33.0147 107.51 33.0147C109.708 33.0147 111.619 32.2788 113.239 30.8057C113.583 30.4469 113.759 30.0339 113.759 29.555C113.759 29.0762 113.607 28.6632 113.298 28.3458C112.988 28.0283 112.596 27.8669 112.129 27.8669C111.732 27.8791 111.386 27.9985 111.094 28.2257C110.568 28.6923 110.019 29.0396 109.428 29.2729C108.844 29.5062 108.206 29.6202 107.511 29.6202C106.745 29.6202 106.032 29.4703 105.359 29.1712C104.687 28.8721 104.103 28.4651 103.599 27.9564C103.097 27.4478 102.699 26.8374 102.413 26.149C102.126 25.4544 101.98 24.7125 101.98 23.9223C101.98 23.1322 102.126 22.3902 102.413 21.6957C102.699 21.0012 103.096 20.4029 103.599 19.8882V19.8821L103.599 19.8848Z" fill="white"/>
</svg>
