<svg width="212" height="40" viewBox="0 0 212 40" fill="none" xmlns="http://www.w3.org/2000/svg">
<path d="M65.8897 30.6819C69.0056 30.6819 70.5779 29.0729 71.2631 27.9772H71.5718C71.7074 29.1409 72.5297 30.2366 74.1381 30.2366H77.1833V26.812H76.3971C75.8489 26.812 75.5748 26.5041 75.5748 26.0256V12.2954H71.5358V14.487H71.2285C70.4423 13.3912 68.7993 11.8502 65.7873 11.8502C60.9966 11.8502 57.4365 15.8212 57.4365 21.2653C57.4365 26.7094 61.0644 30.6819 65.8897 30.6819ZM66.6081 26.7788C63.7677 26.7788 61.5448 24.6899 61.5448 21.3C61.5448 17.978 63.6999 15.72 66.5749 15.72C69.3128 15.72 71.605 17.7395 71.605 21.3C71.605 24.3473 69.6533 26.7788 66.6081 26.7788ZM79.5692 37.1942H83.6068V27.9772H83.9141C84.6671 29.0729 86.2755 30.6819 89.4592 30.6819C94.2498 30.6819 97.7408 26.6414 97.7408 21.2653C97.7408 15.8559 94.0104 11.8502 89.1851 11.8502C86.1053 11.8502 84.5979 13.5271 83.8795 14.4523H83.5722V12.2954H79.5678L79.5692 37.1942ZM88.6038 26.8814C85.8312 26.8814 83.5376 24.8272 83.5376 21.2653C83.5376 18.218 85.4893 15.6507 88.5345 15.6507C91.3763 15.6507 93.5993 17.8769 93.5993 21.2653C93.5993 24.5873 91.4441 26.8814 88.6038 26.8814ZM99.8252 37.1942H103.864V27.9772H104.172C104.925 29.0729 106.533 30.6819 109.715 30.6819C114.506 30.6819 117.664 26.6414 117.664 21.2653C117.664 15.8559 114.266 11.8502 109.441 11.8502C106.361 11.8502 104.855 13.5271 104.137 14.4523H103.828V12.2954H99.8252V37.1942ZM108.86 26.8814C106.087 26.8814 103.795 24.8272 103.795 21.2653C103.795 18.218 105.745 15.6507 108.791 15.6507C111.632 15.6507 113.857 17.8769 113.857 21.2653C113.857 24.5873 111.7 26.8814 108.86 26.8814ZM123.004 30.653H128.718L131.969 16.5802H132.175L135.425 30.653H141.108L145.656 12.7118H141.586L138.335 26.8193H138.026L134.776 12.7103H129.403L126.117 26.8193H125.81L122.593 12.7103H118.28L123.004 30.653ZM147.703 30.653H151.742V21.7857C151.742 18.3958 153.314 16.307 156.258 16.307H158.037V12.2665H156.703C154.409 12.2665 152.664 13.8422 151.98 15.3485H151.706V12.7118H147.703V30.653ZM178.078 30.653H181.227V27.0578H178.113C176.881 27.0578 176.367 26.5099 176.367 25.2436V16.2723H181.432V12.7118H176.367V7.67825H172.535V12.7118H169.181V16.2723H172.295V25.2783C172.295 29.0787 174.587 30.653 178.078 30.653ZM192.061 30.6819C195.791 30.6819 199.077 28.8315 200.24 25.1019L196.544 24.21C195.893 26.1962 194.012 27.224 192.027 27.224C189.083 27.224 187.133 25.3057 187.098 22.2931H200.685V21.1627C200.685 15.8212 197.366 11.8502 191.89 11.8502C187.064 11.8502 182.924 15.6507 182.924 21.3C182.924 26.7788 186.585 30.6819 192.061 30.6819ZM187.133 19.3485C187.372 17.1916 189.323 15.376 191.89 15.376C194.354 15.376 196.374 16.917 196.579 19.3485H187.133Z" fill="#EDEDF0"/>
<path fill-rule="evenodd" clip-rule="evenodd" d="M167.384 30.6528H163.345V16.2721H160.198V12.7116H167.384V30.6528Z" fill="#EDEDF0"/>
<path d="M165.066 10.2207C166.538 10.2207 167.633 9.12493 167.633 7.68658C167.633 6.28436 166.538 5.18716 165.066 5.18716C163.594 5.18716 162.499 6.28291 162.499 7.68802C162.499 9.12493 163.594 10.2207 165.066 10.2207Z" fill="#EDEDF0"/>
<path d="M45.5297 26.254V34.1729H25.78C20.0258 34.1729 15.0015 30.9883 12.314 26.254C11.1249 24.1556 10.426 21.8143 10.27 19.4063L10.27 17.2668C10.3401 16.1679 10.5243 15.0792 10.8196 14.0186C12.666 7.36887 18.6655 2.50013 25.7786 2.50013C32.896 2.50013 38.8941 7.37176 40.7391 14.0171H32.2945C30.9097 11.8502 28.5093 10.4176 25.78 10.4176C23.0508 10.4176 20.6518 11.8502 19.2656 14.0171C18.8371 14.6844 18.5113 15.4124 18.2991 16.1768C18.1046 16.8801 18.0066 17.6067 18.0077 18.3365C18.0045 19.4116 18.2189 20.4761 18.6379 21.4657C19.0569 22.4554 19.6719 23.3496 20.4456 24.0943C21.877 25.4802 23.7897 26.2546 25.78 26.254H45.5297Z" fill="#FD366E"/>
<path d="M45.5297 16.1753V24.0942H31.113C31.887 23.3496 32.5022 22.4555 32.9215 21.4658C33.3407 20.4762 33.5554 19.4116 33.5524 18.3365C33.5531 17.6066 33.4545 16.88 33.2595 16.1768L45.5297 16.1753Z" fill="#FD366E"/>
</svg>
